PathFileType	4	(X/Y/Z)	D:\Studies\Accel_Decel\Raw_data\p_01\static/static_01.trc
DataRate	CameraRate	NumFrames	NumMarkers	Units	OrigDataRate	OrigDataStartFrame	OrigNumFrames
200.000000	200.000000	4	63	mm	200.000000	246	987
Frame#	Time	C7			Sternum			MidT			L.ASIS			R.ASIS			L.PSIS			R.PSIS			L.Acromion			L.Elbow.Med			L.Elbow.Lat			L.Radius			L.Ulna			R.Acromion			R.Elbow.Med			R.Elbow.Lat			R.Ulna			R.Radius			L.Thigh.Post.Sup			L.Thigh.Ant.Sup			L.Thigh.Post.Inf			L.Thigh.Ant.Inf			L.Knee.Med			L.Knee.Lat			L.Shank.Post.Sup			L.Shank.Ant.Sup			L.Shank.Post.Inf			L.Shank.Ant.Inf			L.Ankle.Med			L.Ankle.Lat			L.Heel.Sup			L.Heel.Inf			L.Heel. Med			L.Heel.Lat			L.Midfoot.Med			L.Midfoot.Int			L.Midfoot.Lat			L.MTP1			L.MTP2			L.MTP5			L.Toe			R.Thigh.Post.Sup			R.Thigh.Ant.Sup			R.Thigh.Post.Inf			R.Thigh.Ant.Inf			R.Knee.Med			R.Knee.Lat			R.Shank.Post.Sup			R.Shank.Ant.Sup			R.Shank.Post.Inf			R.Shank.Ant.Inf			R.Ankle.Med			R.Ankle.Lat			R.Heel.Sup			R.Heel.Inf			R.Heel.Med			R.Heel.Lat			R.Midfoot.Med			R.Midfoot.Int			R.Midfoot.Lat			R.MTP1			R.MTP2			R.MTP5			R.Toe			
		X1	Y1	Z1	X2	Y2	Z2	X3	Y3	Z3	X4	Y4	Z4	X5	Y5	Z5	X6	Y6	Z6	X7	Y7	Z7	X8	Y8	Z8	X9	Y9	Z9	X10	Y10	Z10	X11	Y11	Z11	X12	Y12	Z12	X13	Y13	Z13	X14	Y14	Z14	X15	Y15	Z15	X16	Y16	Z16	X17	Y17	Z17	X18	Y18	Z18	X19	Y19	Z19	X20	Y20	Z20	X21	Y21	Z21	X22	Y22	Z22	X23	Y23	Z23	X24	Y24	Z24	X25	Y25	Z25	X26	Y26	Z26	X27	Y27	Z27	X28	Y28	Z28	X29	Y29	Z29	X30	Y30	Z30	X31	Y31	Z31	X32	Y32	Z32	X33	Y33	Z33	X34	Y34	Z34	X35	Y35	Z35	X36	Y36	Z36	X37	Y37	Z37	X38	Y38	Z38	X39	Y39	Z39	X40	Y40	Z40	X41	Y41	Z41	X42	Y42	Z42	X43	Y43	Z43	X44	Y44	Z44	X45	Y45	Z45	X46	Y46	Z46	X47	Y47	Z47	X48	Y48	Z48	X49	Y49	Z49	X50	Y50	Z50	X51	Y51	Z51	X52	Y52	Z52	X53	Y53	Z53	X54	Y54	Z54	X55	Y55	Z55	X56	Y56	Z56	X57	Y57	Z57	X58	Y58	Z58	X59	Y59	Z59	X60	Y60	Z60	X61	Y61	Z61	X62	Y62	Z62	X63	Y63	Z63	

247	1.23	148.4314727783204	1410.907836914063	234.4238739013673	305.2579345703126	1357.990844726563	233.1093292236329	106.3983917236329	1255.41455078125	234.9089355468751	301.8244018554689	947.6766967773442	117.1657028198243	305.0285949707032	950.7471313476567	336.2722167968751	137.5906219482422	969.5274047851567	187.885482788086	137.0812683105469	966.9201660156255	269.1978759765626	219.264862060547	1400.059326171875	51.92090988159183	238.8857574462892	1083.466430664063	56.41741561889651	216.5148468017579	1125.741455078125	-41.2042808532715	286.5982666015626	911.2719116210942	-120.4126663208008	243.0056457519532	873.8452148437505	-61.03197860717776	211.0682525634767	1386.120483398438	418.5558166503909	237.6616668701173	1066.35693359375	415.4208679199221	211.601776123047	1098.498168945313	521.1440429687502	244.1651916503907	852.2979125976567	523.3183593750002	279.7038574218751	884.4157714843755	592.0814208984377	194.1602783203126	701.5774536132815	55.93755722045901	268.3204345703126	700.3574829101565	40.90344619750978	191.8299713134766	597.5913085937502	62.29137039184573	254.5362854003907	611.963317871094	43.41731262207033	256.2943420410157	480.5457153320315	176.4846343994141	217.5129241943361	502.504577636719	61.14011001586917	152.3399505615235	309.2788085937501	46.23408508300783	232.8379516601564	297.6201782226564	47.41516494750978	155.9625244140626	247.967498779297	47.34626388549806	216.9162445068361	220.1791229248048	48.84778213500979	201.5864410400392	113.9626922607422	139.5901947021485	182.2719116210938	101.0383453369141	49.98614120483401	117.2704544067383	79.75796508789065	101.268165588379	111.7622756958008	49.04027938842776	97.53555297851568	144.2648925781251	49.43020629882815	138.7326812744141	132.9421539306641	44.76601409912111	56.8459396362305	243.7806243896486	88.48437500000003	138.3843383789063	277.5423889160157	109.9990921020508	88.60862731933597	221.2077484130861	84.90534210205081	33.38510894775392	328.4283752441407	62.38700485229495	119.5117340087891	335.9206848144532	74.8916931152344	86.1884689331055	316.0858764648439	59.07801055908206	21.74144172668458	374.4598388671876	68.18334960937503	80.70526885986331	172.9515533447266	711.5317382812502	391.3182678222659	242.8384552001954	708.539733886719	419.4237365722659	180.4429931640626	625.307312011719	406.1352844238284	239.0642547607423	603.2669067382815	420.022888183594	245.2474517822267	484.6532897949221	292.3153381347657	216.1565551757814	493.9211120605471	407.6662597656252	141.3058166503907	271.5930786132814	407.2724609375002	203.7779693603517	287.0315551757814	423.2670898437502	134.8253021240235	210.8107299804689	389.1517028808596	207.0164184570314	206.9092102050782	411.5457763671877	202.3680572509767	121.4414215087891	317.2730407714845	175.0381622314454	109.4391555786133	402.223571777344	120.4861450195313	83.87052917480472	349.6164855957032	113.2462234497071	47.69473266601564	352.4306640625001	159.9010925292969	39.62020492553712	305.4440307617189	142.0337371826172	47.27914428710939	396.384704589844	241.7648315429689	87.96879577636722	312.3631896972657	280.6476135253907	108.7144088745118	362.9359436035157	225.0593872070314	84.2306823730469	416.9443054199221	318.9971618652345	65.29771423339847	325.3034973144532	328.7821044921876	77.49588012695315	369.3471069335939	294.6995544433595	46.25458145141603	433.260192871094	373.2130432128907	71.46939849853518	371.395721435547	
248	1.235	148.4164733886719	1410.89697265625	234.4197692871095	305.2398986816407	1357.9990234375	233.0941162109376	106.3482818603516	1255.413940429688	234.8837890625001	301.7341918945314	947.6672973632817	117.1447296142579	304.661102294922	950.697631835938	336.142547607422	137.5648956298829	969.4772949218755	187.8631439208985	137.0111083984376	966.8996582031255	269.1515502929689	219.2345733642579	1400.074340820313	51.88556289672854	238.8609466552736	1083.495239257813	56.42950820922854	216.4115142822267	1125.747924804688	-41.20932006835939	286.5420532226564	911.2753906250005	-120.4402923583985	242.9499969482423	873.8574218750005	-61.07107925415042	211.0513763427736	1386.134765625	418.5260925292971	237.5983428955079	1066.362426757813	415.420104980469	211.4764709472657	1098.525268554688	521.1912231445315	244.0973510742189	852.3119506835942	523.311950683594	279.6828918457032	884.4314575195317	592.066833496094	194.1050720214845	701.546325683594	55.92080688476565	268.2076416015626	700.3284301757815	40.8782081604004	191.8240661621094	597.5571289062502	62.29596710205081	254.5263519287111	611.9302978515627	43.42602539062501	256.2345581054689	480.5698547363284	176.4643859863282	217.4711761474611	502.4771118164065	61.1497497558594	152.0921630859376	309.3430175781251	45.82150650024415	233.1228027343751	297.6785583496095	47.15968704223634	155.9222412109376	247.9611968994142	47.32587814331056	216.8699798583986	220.1792907714845	48.82886886596683	201.5745391845704	113.9510345458985	139.5924377441407	182.2779235839844	101.020492553711	49.9833793640137	117.2333450317383	79.75834655761722	101.2597274780274	111.7781372070313	49.00650024414065	97.49829864501959	144.2945251464844	49.38831710815433	138.7430114746094	132.8993682861329	44.7648391723633	56.81643676757815	243.7525329589845	88.48085784912112	138.3900146484376	277.567108154297	110.006217956543	88.56697082519534	221.1907196044923	84.91091918945315	33.34990692138673	328.4363708496095	62.38809204101565	119.5071182250977	335.9341125488282	74.89700317382815	86.16593170166018	316.0661621093751	59.06104660034183	21.72381782531739	374.4588928222657	68.1763610839844	80.69160461425784	172.8902282714844	711.5577392578127	391.3238525390627	242.7588500976564	708.5184326171877	419.423767089844	180.3952789306641	625.3875732421877	406.115661621094	239.0357055664064	603.189392089844	420.1002502441409	245.2157745361329	484.6473388671877	292.3085021972657	216.150604248047	493.9219665527346	407.6746215820315	141.2642974853516	271.5263671875001	407.273620605469	203.7879638671876	287.0512084960939	423.2949218750002	134.8383178710938	210.7951812744142	389.1563110351565	206.9846649169923	206.8742828369142	411.5222778320315	202.3552093505861	121.4182052612305	317.2510986328126	175.0645294189454	109.4300155639649	402.2178344726565	120.4550399780274	83.85621643066409	349.5895385742189	113.2545394897462	47.65804672241212	352.4319152832032	159.8643646240235	39.58185195922853	305.4178161621095	142.0316619873047	47.25677490234376	396.3899536132815	241.7560272216798	87.93555450439456	312.3406372070314	280.6582336425782	108.7257385253907	362.9234008789064	225.0662384033204	84.23125457763675	416.9430236816409	319.0076904296876	65.30056762695315	325.3170471191407	328.7790527343751	77.49905395507815	369.3694458007814	294.7007751464845	46.2705535888672	433.253356933594	373.1908569335939	71.46488952636722	371.3974609375001	
249	1.24	148.3601837158204	1410.900634765625	234.4021453857423	305.2290649414064	1358.01513671875	233.0872192382814	106.2698593139649	1255.414184570313	234.8721771240236	301.6304931640626	947.6629028320317	117.1504211425782	304.5147399902345	950.6579589843755	336.1011657714845	137.3786315917969	969.4780273437505	187.8651428222657	136.8796539306641	966.9234008789067	269.1697998046876	219.1929473876954	1400.074462890625	51.88520812988284	238.7867126464845	1083.4931640625	56.39854431152347	216.2908172607423	1125.755249023438	-41.20593643188478	286.4645996093751	911.2821655273442	-120.4415283203126	242.8585052490236	873.8749389648442	-61.08399581909183	211.0100097656251	1386.144165039063	418.516540527344	237.4712829589845	1066.38623046875	415.411804199219	211.4478912353517	1098.559448242188	521.186462402344	244.0030212402345	852.3400268554692	523.3354492187502	279.6329345703126	884.4558715820317	592.0524902343752	194.1553649902345	701.5194091796877	56.05429840087893	267.9957275390626	700.287536621094	40.88745117187501	191.7810363769532	597.5157470703127	62.33051300048831	254.4815979003907	611.8953247070315	43.49516677856447	256.204559326172	480.573181152344	176.4603118896485	217.3916015625001	502.4553222656252	61.13814926147464	152.0588378906251	309.281951904297	45.98124313354494	233.0868682861329	297.6467590332032	47.17793655395509	155.8878173828126	247.9846954345704	47.35363769531251	216.8707885742189	220.1443176269532	48.87165069580081	201.5584869384767	113.9454803466797	139.5566101074219	182.2436676025391	101.0242309570313	49.98283767700198	117.1950149536133	79.75274658203128	101.2479705810547	111.721290588379	49.00378799438479	97.49672698974615	144.2254180908204	49.42887496948245	138.6849060058594	132.8812561035157	44.75362777709962	56.80717468261722	243.7753753662111	88.49570465087893	138.3892211914063	277.5982971191407	110.0257110595704	88.52520751953128	221.1428527832032	84.89711761474612	33.38069534301759	328.4208984375001	62.38178253173831	119.5071258544922	335.9042358398439	74.90009307861331	86.18301391601565	316.0110473632814	59.10539245605472	21.71487045288087	374.4288024902345	68.16236114501956	80.69238281250003	172.8059082031251	711.4739379882815	391.3235778808596	242.6861419677736	708.513366699219	419.3938903808596	180.3841094970704	625.3035888671877	406.2143859863284	238.9671325683595	603.2327270507815	420.0175781250002	245.1541290283204	484.659606933594	292.3116760253907	216.076629638672	493.9310607910159	407.6559143066409	141.1870422363282	271.5065307617189	407.2652587890627	203.7343597412111	287.0557556152345	423.2635498046877	134.7677154541016	210.7531585693361	389.1470031738284	207.0000762939454	206.9094543457032	411.5224914550784	202.3139495849611	121.4077682495118	317.2630920410157	175.0231628417969	109.3989410400391	402.2131958007815	120.4208145141602	83.84521484375003	349.603485107422	113.2172851562501	47.66212844848634	352.4334106445314	159.8373413085938	39.60099411010744	305.4358520507814	141.9959564208985	47.23627090454103	396.3806457519534	241.723846435547	87.94800567626956	312.3519592285157	280.2713928222657	108.5620727539063	363.0742797851564	225.0544891357423	84.22907257080081	416.9526367187502	318.9473876953126	65.31864166259768	325.2542419433595	328.7669067382814	77.50576019287112	369.3545837402345	294.686492919922	46.25842666625978	433.2453308105471	373.1724853515626	71.4651794433594	371.4143981933595	
250	1.245	148.3111419677735	1410.912353515625	234.4028320312501	305.179168701172	1358.015991210938	233.0693511962892	106.1745681762696	1255.428588867188	234.8654937744142	301.5277404785157	947.6684570312505	117.1687316894532	304.7841186523439	950.7753906250005	336.1943969726564	137.3242340087891	969.4550170898442	187.8661804199219	136.7831726074219	966.9175415039067	269.167205810547	219.1161651611329	1400.09814453125	51.86172103881839	238.8761749267579	1083.523803710938	56.43202209472659	216.2003479003907	1125.766357421875	-41.217098236084	286.4006652832032	911.3019409179692	-120.4731369018555	242.7657775878907	873.905883789063	-61.12491607666018	210.9911651611329	1386.165893554688	418.5090637207034	237.3630981445314	1066.3935546875	415.405212402344	211.5243530273439	1098.561767578125	521.1553344726565	243.8852386474611	852.369995117188	523.3547973632815	279.6278076171876	884.479858398438	592.0565185546877	193.9403228759767	701.5015258789065	55.89970397949222	267.9533996582032	700.3482055664065	40.87294006347658	191.7107696533204	597.5299072265627	62.32527160644534	254.2037200927736	611.8710937500002	43.34980773925783	256.1452026367189	480.576354980469	176.4549255371094	217.3348541259767	502.4590148925784	61.13906478881839	151.9881439208985	309.2855224609376	46.0102882385254	233.0263519287111	297.6696166992189	47.20528030395509	155.8094329833985	247.9192199707032	47.35763168334962	216.8301086425782	220.1152496337892	48.86054992675784	201.5462493896486	113.9369506835938	139.5501861572266	182.2008666992188	101.0135574340821	49.99934768676761	117.2207870483399	79.74106597900393	101.2719421386719	111.7151031494141	49.017448425293	97.53551483154303	144.2151947021485	49.43743515014651	138.6945953369141	132.8682098388672	44.7561721801758	56.83096313476565	243.7559356689454	88.49517059326175	138.3758392333985	277.5511169433595	110.0351257324219	88.58527374267581	221.117401123047	84.88230133056643	33.37613677978517	328.3787841796876	62.37497329711917	119.4947509765626	335.8986816406251	74.90003204345706	86.1896667480469	315.9726562500001	59.04927444458011	21.70563316345216	374.415008544922	68.16087341308597	80.70787048339847	172.7400512695313	711.4808349609377	391.3391723632815	242.6331176757814	708.561706542969	419.3952636718752	179.7390289306641	625.6697387695315	406.5780029296877	238.8861083984376	603.2012939453127	420.000427246094	245.0845336914064	484.6576843261721	292.3316040039064	216.0544738769532	493.9233398437502	407.6542663574221	141.1499938964844	271.495819091797	407.2469787597659	203.6775665283204	287.0523071289064	423.236999511719	134.7334442138672	210.7319488525392	389.1582031250002	206.9925079345704	206.8793334960939	411.5692138671877	202.2971801757814	121.4155883789063	317.281707763672	175.0157775878907	109.4281387329102	402.226257324219	120.3844070434571	83.84275054931643	349.606414794922	113.2082061767579	47.63279724121095	352.4574279785157	159.808334350586	39.61224746704103	305.4189758300782	141.9902343750001	47.23176574707033	396.3936767578127	241.6891937255861	87.94840240478518	312.3885803222657	280.2461853027345	108.5750350952149	363.0850219726564	225.0560760498048	84.21904754638675	416.9669189453127	318.9302978515626	65.34815979003909	325.267791748047	328.7454833984376	77.53176879882815	369.3827209472657	294.6856689453126	46.28038787841798	433.2672119140627	373.175994873047	71.48596954345706	371.444061279297	
